<?xml version="1.0" encoding="UTF-8"?>
<!DOCTYPE svg PUBLIC "-//W3C//DTD SVG 1.1//EN" "http://www.w3.org/Graphics/SVG/1.1/DTD/svg11.dtd">
<!-- Creator: CorelDRAW -->
<svg xmlns="http://www.w3.org/2000/svg" xml:space="preserve" width="15.9377mm" height="20.6198mm" version="1.1" style="shape-rendering:geometricPrecision; text-rendering:geometricPrecision; image-rendering:optimizeQuality; fill-rule:evenodd; clip-rule:evenodd"
viewBox="0 0 420.72 544.32"
 xmlns:xlink="http://www.w3.org/1999/xlink"
 xmlns:xodm="http://www.corel.com/coreldraw/odm/2003">
 <defs>
  <style type="text/css">
   <![CDATA[
    .fil4 {fill:#A4A3A3}
    .fil8 {fill:#B9B9B9}
    .fil1 {fill:#C5C5C4}
    .fil5 {fill:#CCCCCB}
    .fil3 {fill:gainsboro}
    .fil7 {fill:#DEDEDE}
    .fil0 {fill:#E2A16F}
    .fil6 {fill:#F2F2F2}
    .fil2 {fill:#FEFEFE}
   ]]>
  </style>
 </defs>
 <g id="Layer_x0020_1">
  <metadata id="CorelCorpID_0Corel-Layer"/>
  <path class="fil0" d="M181.59 446.34c-8.76,0.24 -64.29,0.63 -68.56,-0.99 -3.72,-6.57 8.06,-26.94 11.22,-31.83l20.78 -25.19c21.4,-24.59 76.73,-61.37 107.81,-76.09 17.86,-8.46 23.87,-15.36 30.7,-7.79 7.78,8.63 15.57,15.84 18.95,27.87 6.81,7.44 6.67,40.7 3.84,52.56 -3.26,13.71 -14.15,28.49 -24.16,38.07 -9.05,8.65 -25.62,16.34 -41.69,19.68 -19.05,3.96 -38.73,3.29 -58.88,3.72zm69.25 -213.13c-1.03,-7.81 -9.22,-13.12 -14.6,-17.45 -3.09,-2.49 -5.83,-4.82 -9.27,-6.98 -2.88,-1.8 -7.33,-3.15 -10.07,-5.79 -3.18,-0.92 -7.73,-3.01 -11.35,-4.46 -4.98,-1.98 -7.23,-1.65 -11.44,-2.73 -17.07,-2.87 -29.88,-2.72 -47.62,-2.61 -6.99,0.12 -25.89,2.07 -30.53,-1.05l-4.14 0.31 0.47 -95.54 15.16 0.06c5.53,-3.33 70.28,-1.03 81.56,-0.45 12.22,0.47 31.28,1.01 40.93,5.02 7.65,1.36 17.65,5.97 22.97,9.3 10.51,6.61 22.58,17.65 25.91,31.93 6.12,40.69 1.01,59.79 -17.73,87.57 -1.96,2.9 -3.89,5.18 -5.76,7.65 -19.47,25.68 -55.5,53.06 -82.96,70.27 -20.12,12.61 -36.6,26.94 -52.57,44.17 -10.77,11.62 -19.55,27.04 -28.34,40.8 -0.94,-11.34 -0.1,-25.11 -0.51,-36.97 -0.41,-11.67 -0.64,-23.83 3.19,-34.28 8.53,-23.31 66.72,-46 90.98,-59.38 11.44,-6.31 24.62,-14.07 34.77,-21.75 2.34,-1.77 7.99,-6.64 10.96,-7.65zm119.02 -0.32c49.73,-61.23 37.89,-154.57 -26.9,-199.53 -24.97,-17.33 -47.77,-25.48 -80.76,-30.38 -27.15,-4.03 -58.29,-2.7 -86.02,-2.67 -16.42,0.01 -164.26,-0.87 -176.19,0.29l0.38 542.98c30.85,1.6 65.95,0.12 97.26,0.12 32.57,0 65.14,0 97.7,0 32.3,0 59.73,0.68 89.92,-7.49 49.55,-13.42 87.57,-35.96 114.21,-80.2 33.65,-55.9 28.07,-140.94 -21.95,-180.38 -7.57,-5.97 -17.72,-16.22 -29.31,-18.91l21.65 -23.82z"/>
  <path class="fil1" d="M181.59 446.34l116.18 -112.23c3.15,-2.8 0.97,-3.1 4.71,-1.79 -3.38,-12.02 -11.16,-19.24 -18.95,-27.87 -6.82,-7.57 -12.84,-0.67 -30.7,7.79 -31.09,14.73 -86.41,51.51 -107.81,76.09l-20.78 25.19c-3.16,4.88 -14.94,25.25 -11.22,31.83 4.27,1.61 59.8,1.22 68.56,0.99z"/>
  <path class="fil2" d="M250.84 233.21c-2.96,1.01 -8.62,5.88 -10.96,7.65 -10.14,7.68 -23.33,15.44 -34.77,21.75 -24.26,13.39 -82.45,36.07 -90.98,59.38 -3.82,10.45 -3.59,22.6 -3.19,34.28 0.41,11.86 -0.43,25.63 0.51,36.97 8.79,-13.76 17.57,-29.18 28.34,-40.8 15.97,-17.23 32.45,-31.56 52.57,-44.17 27.46,-17.22 63.49,-44.6 82.96,-70.27 1.87,-2.47 3.8,-4.74 5.76,-7.65 18.74,-27.79 23.85,-46.88 17.73,-87.57 -2.98,2.87 -2.93,23.44 -4.25,29.99 -2.41,11.93 -4.68,17.13 -9.87,24.56l-7.11 10.23c-10.18,13.32 -13.86,13.42 -22.18,21.03 -0.79,0.73 -1.58,1.54 -2.4,2.37 -0.15,0.16 -0.37,0.39 -0.51,0.53l-1.65 1.72z"/>
  <path class="fil3" d="M181.59 446.34c20.16,-0.43 39.83,0.23 58.88,-3.72 16.07,-3.34 32.64,-11.03 41.69,-19.68 10.02,-9.58 20.9,-24.35 24.16,-38.07 2.82,-11.86 2.97,-45.12 -3.84,-52.56 -3.73,-1.31 -1.56,-1.01 -4.71,1.79l-116.18 112.23z"/>
  <path class="fil4" d="M216.91 203c2.74,2.64 7.19,3.99 10.07,5.79 3.44,2.15 6.18,4.49 9.27,6.98 5.37,4.32 13.57,9.64 14.6,17.45l1.65 -1.72c0.14,-0.14 0.36,-0.37 0.51,-0.53 0.81,-0.83 1.6,-1.65 2.4,-2.37 8.33,-7.61 12.01,-7.71 22.18,-21.03l7.11 -10.23c5.19,-7.44 7.46,-12.64 9.87,-24.56 1.33,-6.55 1.27,-27.12 4.25,-29.99 -3.33,-14.28 -15.4,-25.32 -25.91,-31.93 -2.06,5.16 -1.31,-0.35 -3.71,5.88 -1.08,2.81 -1.11,3.83 -3.29,6.45 -2.85,3.41 -1.86,0.96 -3.64,5.77l-40.91 70.35c-2.23,3 -1.46,1.73 -4.45,3.7z"/>
  <path class="fil5" d="M146.5 193.19c17.74,-0.11 30.55,-0.26 47.62,2.61l48.92 -83.96c1.22,-2.16 2.16,-3.73 3.59,-6.03 1.73,-2.75 2.27,-2.51 3.32,-4.27 -9.66,-4.01 -28.71,-4.55 -40.93,-5.02 -0.5,4.95 -24.02,43.29 -26.94,48.15 -9.3,15.46 -18.19,31.54 -27.72,46.85 -5.31,0 -5.22,-0.23 -7.85,1.67z"/>
  <path class="fil6" d="M115.96 192.14c12.67,-3.31 4.78,6.71 20.16,-19.55 11.7,-20 31.1,-51.17 40.78,-69.37l3.83 -5.58c-8.62,-0.02 -17.59,-0.92 -26.58,-0.95 -5.66,-0.02 -23.02,1.31 -26.7,0.28l-15.16 -0.06 -0.47 95.54 4.14 -0.31z"/>
  <path class="fil7" d="M115.96 192.14c4.65,3.12 23.54,1.18 30.53,1.05 2.62,-1.9 2.53,-1.67 7.85,-1.67 9.54,-15.31 18.42,-31.39 27.72,-46.85 2.92,-4.85 26.45,-43.2 26.94,-48.15 -11.28,-0.59 -76.03,-2.89 -81.56,0.45 3.68,1.03 21.04,-0.3 26.7,-0.28 9,0.02 17.96,0.93 26.58,0.95l-3.83 5.58c-9.69,18.2 -29.08,49.37 -40.78,69.37 -15.37,26.27 -7.49,16.24 -20.16,19.55z"/>
  <path class="fil8" d="M194.11 195.81c4.21,1.09 6.46,0.75 11.44,2.73 3.62,1.44 8.18,3.54 11.35,4.46 3,-1.96 2.22,-0.7 4.45,-3.7l40.91 -70.35c1.78,-4.81 0.8,-2.36 3.64,-5.77 2.19,-2.63 2.21,-3.64 3.29,-6.45 2.39,-6.23 1.64,-0.73 3.71,-5.88 -5.32,-3.33 -15.32,-7.94 -22.97,-9.3 -1.05,1.76 -1.6,1.52 -3.32,4.27 -1.44,2.29 -2.38,3.86 -3.59,6.03l-48.92 83.96z"/>
 </g>
</svg>
